<?xml version="1.0" encoding="utf-8"?>
<!-- Generator: Adobe Illustrator 28.0.0, SVG Export Plug-In . SVG Version: 6.00 Build 0)  -->
<svg version="1.1" id="Layer_1" xmlns="http://www.w3.org/2000/svg" xmlns:xlink="http://www.w3.org/1999/xlink" x="0px" y="0px"
	 viewBox="0 0 348 156" style="enable-background:new 0 0 348 156;" xml:space="preserve">
<style type="text/css">
	.st0{fill:#531E6A;}
	.st1{fill:#00BCBA;}
</style>
<g id="design">
	<g>
		<path class="st0" d="M5.3,56.7c0-22.9,16.3-40.9,39.5-40.9c27,0,39.5,19.8,39.5,42.8c0,1.7,0,3.8-0.1,5.6H31.8
			c2.2,8.5,8.4,12.9,16.9,12.9c6.5,0,11.7-2.5,17.4-8l15.2,12.6c-7.5,9.5-18.4,15.9-34,15.9C22.7,97.6,5.3,81.2,5.3,56.7z
			 M58.6,50.1c-1-8.7-6.1-14.2-13.6-14.2c-7.2,0-12.1,5.6-13.6,14.2H58.6z"/>
		<g>
			<g>
				<path class="st0" d="M88.5,92.2l15.6-18.7c10,8,21.1,12.1,32.8,12.1c7.5,0,11.6-2.6,11.6-7.2c0-4.2-3.3-6.5-17.1-9.7
					c-21.5-4.9-38.2-11-38.2-32.1c0-18.8,14.9-32.4,39.2-32.4c17.2,0,30.7,4.6,41.7,13.5l-14,19.8c-9.3-6.5-19.4-10-28.3-10
					c-6.8,0-10.1,2.9-10.1,6.8c0,4.6,3.5,6.7,17.5,9.8c23.3,5.1,37.8,12.6,37.8,31.8c0,20.7-16.3,33-40.9,33
					C118,109,101,103.4,88.5,92.2z"/>
			</g>
		</g>
		<g>
			<path class="st0" d="M182.1,56.6c0-22.1,17.2-40.8,41.9-40.8c16.1,0,26.8,6.9,33.4,17.5L239,46.6c-3.8-5.2-8.2-7.7-14.2-7.7
				c-10,0-16.1,7.8-16.1,17.6c0,10.1,6.4,17.8,15.6,17.8c6.5,0,10.4-3.2,14.8-8.2l18.7,13.5c-7.2,10.7-17.6,17.9-34.9,17.9
				C199.4,97.5,182.1,79,182.1,56.6z"/>
		</g>
		<path class="st0" d="M257.9,56.7c0-22.3,18.2-40.9,43.4-40.9c25,0,43.1,18.4,43.1,40.9c0,22.3-18.2,40.9-43.4,40.9
			C276,97.6,257.9,79.2,257.9,56.7z M317.7,56.7c0-9.5-6.9-17.6-16.6-17.6c-10,0-16.3,8-16.3,17.6c0,9.5,6.9,17.6,16.6,17.6
			C311.3,74.3,317.7,66.3,317.7,56.7z"/>
		<path class="st1" d="M202.3,125.8c-38.7,34.6-101.4,34.6-140.1,0l15.6-19.5c30,27.5,78.6,27.5,108.6,0L202.3,125.8z"/>
	</g>
</g>
<g id="guides">
</g>
</svg>
